<svg viewBox="0 0 24 24" fill="none" xmlns="http://www.w3.org/2000/svg">
<path fill-rule="evenodd" clip-rule="evenodd" d="M6.35659 6.35646C6.6097 6.10335 7.02009 6.10335 7.27321 6.35646L17.6436 16.7268C17.8967 16.98 17.8967 17.3903 17.6436 17.6435C17.3905 17.8966 16.9801 17.8966 16.727 17.6435L6.35659 7.27308C6.10347 7.01997 6.10347 6.60958 6.35659 6.35646Z" fill="#388AF3"/>
<path fill-rule="evenodd" clip-rule="evenodd" d="M17.6436 6.35646C17.8967 6.60958 17.8967 7.01997 17.6436 7.27308L7.27321 17.6435C7.02009 17.8966 6.6097 17.8966 6.35659 17.6435C6.10347 17.3903 6.10347 16.98 6.35659 16.7268L16.727 6.35646C16.9801 6.10335 17.3905 6.10335 17.6436 6.35646Z" fill="#388AF3"/>
</svg>
